<?xml version="1.0" encoding="UTF-8" standalone="no"?>
<svg
   viewBox="0 0 100 100"
   version="1.1"
   id="svg17"
   sodipodi:docname="KeepassSync.svg"
   xml:space="preserve"
   inkscape:version="1.3 (0e150ed6c4, 2023-07-21)"
   width="100"
   height="100"
   xmlns:inkscape="http://www.inkscape.org/namespaces/inkscape"
   xmlns:sodipodi="http://sodipodi.sourceforge.net/DTD/sodipodi-0.dtd"
   xmlns:xlink="http://www.w3.org/1999/xlink"
   xmlns="http://www.w3.org/2000/svg"
   xmlns:svg="http://www.w3.org/2000/svg"><sodipodi:namedview
     id="namedview17"
     pagecolor="#ffffff"
     bordercolor="#000000"
     borderopacity="0.25"
     inkscape:showpageshadow="2"
     inkscape:pageopacity="0.0"
     inkscape:pagecheckerboard="0"
     inkscape:deskcolor="#d1d1d1"
     inkscape:zoom="6.2734375"
     inkscape:cx="21.599004"
     inkscape:cy="56.508095"
     inkscape:window-width="1920"
     inkscape:window-height="1007"
     inkscape:window-x="0"
     inkscape:window-y="0"
     inkscape:window-maximized="1"
     inkscape:current-layer="svg17" /><defs
     id="defs17"><linearGradient
       id="e"
       x1="63.999802"
       y1="-3.3139999"
       x2="63.999802"
       y2="118.486"
       gradientUnits="userSpaceOnUse"><stop
         offset="0"
         stop-color="#414141"
         id="stop1" /><stop
         offset=".196"
         stop-color="#3e3e3e"
         id="stop2" /><stop
         offset="1"
         stop-color="#3a3a3a"
         id="stop3" /></linearGradient><radialGradient
       id="g"
       cx="302.80139"
       cy="-375.53009"
       fx="302.80139"
       fy="-375.53009"
       r="207.2339"
       gradientTransform="matrix(0.3539,0,0,0.3539,-46.999,185.5275)"
       gradientUnits="userSpaceOnUse"><stop
         offset=".6733"
         stop-color="#fcfcfc"
         stop-opacity="0"
         id="stop4" /><stop
         offset="1"
         stop-color="#fcfcfc"
         id="stop5" /></radialGradient><radialGradient
       id="i"
       cx="311.14719"
       cy="-348.23251"
       fx="311.14719"
       fy="-348.23251"
       r="172.3893"
       gradientTransform="matrix(0.3539,0,0,0.3539,-46.999,185.5275)"
       gradientUnits="userSpaceOnUse"><stop
         offset=".1088"
         stop-color="#0f0f0d"
         stop-opacity="0"
         id="stop6" /><stop
         offset=".8856"
         stop-color="#414141"
         stop-opacity="0"
         id="stop7" /><stop
         offset=".9339"
         stop-color="#1e1e1d"
         stop-opacity=".6841"
         id="stop8" /><stop
         offset=".9874"
         stop-color="#0f0f0d"
         id="stop9" /></radialGradient><radialGradient
       id="n"
       cx="316.8927"
       cy="-451.59729"
       fx="316.8927"
       fy="-451.59729"
       r="334.8364"
       gradientTransform="matrix(0.3539,0,0,0.2026,-46.999,117.9256)"
       gradientUnits="userSpaceOnUse"><stop
         offset="0"
         stop-color="#2e6b26"
         id="stop10" /><stop
         offset="1"
         stop-color="#6ab536"
         id="stop11" /></radialGradient><radialGradient
       id="p"
       cx="314.38751"
       cy="-453.36301"
       fx="314.38751"
       fy="-453.36301"
       r="65.392502"
       gradientTransform="matrix(0.3539,0,0,0.3539,-46.999,185.5275)"
       gradientUnits="userSpaceOnUse"><stop
         offset="0"
         stop-color="#6ab536"
         id="stop12" /><stop
         offset="1"
         stop-color="#2e6b26"
         id="stop13" /></radialGradient><radialGradient
       id="r"
       cx="322.2128"
       cy="-390.2547"
       fx="322.2128"
       fy="-390.2547"
       r="96.585098"
       gradientTransform="matrix(0.3356,0,0,0.5572,-44.2199,256.5751)"
       gradientUnits="userSpaceOnUse"><stop
         offset="0"
         stop-color="#000"
         id="stop14" /><stop
         offset=".7842"
         stop-color="#4f4f4f"
         stop-opacity="0"
         id="stop15" /></radialGradient><radialGradient
       id="u"
       cx="312.9946"
       cy="-473.01779"
       fx="312.9946"
       fy="-473.01779"
       r="223.5101"
       gradientTransform="matrix(0.3539,0,0,0.3539,-46.999,185.5275)"
       gradientUnits="userSpaceOnUse"><stop
         offset="0"
         stop-color="#f5f5f5"
         id="stop16" /><stop
         offset=".5481"
         stop-color="#f2f2f2"
         id="stop17" /></radialGradient><radialGradient
       id="u-3"
       cx="312.9946"
       cy="-473.01779"
       fx="312.9946"
       fy="-473.01779"
       r="223.5101"
       gradientTransform="matrix(0.2648741,0,0,0.2648741,-35.175624,171.05655)"
       gradientUnits="userSpaceOnUse"><stop
         offset="0"
         stop-color="#f5f5f5"
         id="stop16-6" /><stop
         offset=".5481"
         stop-color="#f2f2f2"
         id="stop17-7" /></radialGradient><clipPath
       clipPathUnits="userSpaceOnUse"
       id="clipPath8"><g
         id="g9"
         transform="matrix(1.0391935,0,0,1.0506745,100.48536,3.4814656)"><path
           id="path8"
           d="M 47.90076,38.355 C 24.89249,38.355 6.174,57.081726 6.174,80.100101 c 0,23.018379 18.71857,41.745099 41.72676,41.745099 23.0082,0 41.72662,-18.72695 41.72662,-41.745099 C 89.62738,57.08195 70.90903,38.355 47.90076,38.355 Z m -6.37209,7.176224 c 2.09235,-0.380508 4.27975,-0.570763 6.37209,-0.570763 2.1874,-0.09513 4.27975,0.190255 6.3721,0.570763 0.0951,0.475636 0.19026,0.951272 0.19026,1.426833 0,3.614757 -2.94827,6.563698 -6.56228,6.563698 -3.61401,0 -6.56228,-2.948867 -6.56228,-6.563698 0,-0.475636 0.0951,-0.951197 0.19026,-1.426833 z m 3.80418,29.013257 V 100.89425 H 42.66989 V 74.544481 Z m 2.56784,40.713669 c -19.40152,0 -35.189038,-15.695678 -35.189038,-35.19637 0,-12.366304 6.467225,-23.781338 17.118998,-30.154782 -0.19018,1.236653 -0.38044,2.378104 -0.38044,3.614757 0,7.324641 4.27975,13.69801 10.55672,16.646952 v 33.389033 l 7.89376,7.8954 7.89376,-7.8954 -0.47556,-6.944135 3.70913,-3.709884 -3.70913,-3.709884 5.61122,-5.612427 -5.61122,-5.612427 0.47556,-7.800276 c 6.18184,-2.948867 10.55671,-9.322311 10.55671,-16.646952 0,-1.236653 -0.0951,-2.378104 -0.38043,-3.614757 10.55672,6.373444 17.02387,17.788478 17.119,30.154782 0,19.405565 -15.69247,35.19637 -35.18904,35.19637 z"
           style="isolation:isolate;fill:url(#radialGradient9);stroke-width:0.748443" /><rect
           style="fill:#22b6ff;fill-opacity:1"
           id="rect8"
           width="69.977585"
           height="26.620174"
           x="18.809465"
           y="17.05604" /><rect
           style="fill:#22b6ff;fill-opacity:1;stroke-width:1.04044"
           id="rect9"
           width="27.257784"
           height="52.283936"
           x="83.68618"
           y="32.358654" /></g></clipPath><radialGradient
       inkscape:collect="always"
       xlink:href="#u-3"
       id="radialGradient9"
       gradientUnits="userSpaceOnUse"
       gradientTransform="matrix(0.2648741,0,0,0.2648741,-35.175624,171.05655)"
       cx="312.9946"
       cy="-473.01779"
       fx="312.9946"
       fy="-473.01779"
       r="223.5101" /></defs><path
     style="fill:#ffffff;fill-opacity:1;fill-rule:nonzero;stroke:none;stroke-width:9.38606;stroke-dasharray:none;stroke-opacity:1"
     d="m 0,50 c 0.35941569,49.824742 0.33244627,49.944374 50,50 49.98638,0.056 50.00601,-0.02629 50,-50 C 99.994061,0.59109219 100.0247,0.19813291 50,0 0.21883031,-0.19716834 0.14315774,0.29034142 0,50 Z"
     id="path9"
     sodipodi:nodetypes="csssc" /><g
     style="isolation:isolate"
     id="g17"
     transform="matrix(0.71817718,0,0,0.73488696,-1.6713774,7.7140088)"><g
       id="b"><g
         id="c"><rect
           width="128"
           height="128"
           style="fill:none"
           id="rect17"
           x="0"
           y="0" /><g
           id="d"><path
             id="f"
             d="M 63.9999,124.9 C 30.4194,124.9 3.0998,97.5802 3.0998,64 c 0,-33.5802 27.3196,-60.9 60.9001,-60.9 33.5805,0 60.8999,27.3195 60.8999,60.9 0,33.5805 -27.3193,60.9 -60.8999,60.9 z m 0,-116.6759 C 33.2584,8.2241 8.2484,33.2451 8.2484,64 c 0,30.7549 25.01,55.7759 55.7515,55.7759 30.7415,0 55.7512,-25.0212 55.7512,-55.7759 0,-30.7547 -25.0097,-55.7759 -55.7512,-55.7759 z"
             style="fill:url(#e)" /><path
             id="h"
             d="M 63.9999,3.1238 C 30.4325,3.1238 3.1236,30.4327 3.1236,64 c 0,33.5673 27.3089,60.8762 60.8763,60.8762 33.5674,0 60.8761,-27.3091 60.8761,-60.8762 0,-33.5671 -27.3086,-60.8762 -60.8761,-60.8762 z"
             style="opacity:0.32;mix-blend-mode:lighten;fill:url(#g)" /><path
             id="j"
             d="M 63.9999,124.9 C 30.4194,124.9 3.0998,97.5802 3.0998,64 c 0,-33.5802 27.3196,-60.9 60.9001,-60.9 33.5805,0 60.8999,27.3195 60.8999,60.9 0,33.5805 -27.3193,60.9 -60.8999,60.9 z m 0,-116.6759 C 33.2584,8.2241 8.2484,33.2451 8.2484,64 c 0,30.7549 25.01,55.7759 55.7515,55.7759 30.7415,0 55.7512,-25.0212 55.7512,-55.7759 0,-30.7547 -25.0097,-55.7759 -55.7512,-55.7759 z"
             style="opacity:0.44;fill:url(#i)" /><path
             id="k"
             d="m 63.9999,8.5504 c -30.9783,0 -56.1809,25.2025 -56.1809,56.1808 0,30.9783 25.2025,56.1808 56.1809,56.1808 30.9784,0 56.1807,-25.2028 56.1807,-56.1808 0,-30.978 -25.2023,-56.1808 -56.1807,-56.1808 z" /><path
             id="l"
             d="M 63.9999,124.9 C 30.4194,124.9 3.0998,97.5802 3.0998,64 c 0,-33.5802 27.3196,-60.9 60.9001,-60.9 33.5805,0 60.8999,27.3195 60.8999,60.9 0,33.5805 -27.3193,60.9 -60.8999,60.9 z m 0,-120.4966 c -33.5804,0 -60.9001,26.9562 -60.9001,60.0898 0,33.1336 27.3197,60.0898 60.9001,60.0898 33.5804,0 60.8999,-26.9565 60.8999,-60.0898 C 124.8998,31.3599 97.5804,4.4034 64,4.4034 Z"
             style="opacity:0.35;fill:#0f0f0d" /></g><g
           id="m"><path
             id="o"
             d="M 63.9999,8.2241 C 33.2448,8.2241 8.2239,33.245 8.2239,64 c 0,30.755 25.0209,55.7759 55.776,55.7759 30.7551,0 55.7758,-25.0211 55.7758,-55.7759 0,-30.7548 -25.0207,-55.7759 -55.7758,-55.7759 z"
             style="fill:url(#n)" /><path
             id="q"
             d="m 63.9998,12.8613 c -9.1608,0 -16.6136,7.4528 -16.6136,16.6135 0,9.1607 7.4528,16.6135 16.6136,16.6135 9.1608,0 16.6135,-7.4528 16.6135,-16.6135 0,-9.1607 -7.4527,-16.6135 -16.6135,-16.6135 z"
             style="opacity:0.7;mix-blend-mode:lighten;fill:url(#p)" /><path
             id="s"
             d="m 34.6871,16.3645 c -0.0027,0.0191 -0.0054,0.0378 -0.0081,0.0569 -0.0725,0.0136 -0.0736,-0.0037 0.0081,-0.0569 z m 42.1177,35.8001 -0.7714,13.7822 9.1023,9.9165 -9.1023,9.9165 6.0168,6.5549 -6.0168,6.5549 0.7714,13.6696 h -25.61 V 52.1646 C 41.0125,46.9542 34.07,35.6932 34.07,22.7514 c 0,-2.1659 0.3032,-4.1671 0.609,-6.33 1.1046,-0.2082 18.9673,-7.6947 18.9673,-7.6947 -0.1483,0.8092 20.8551,0.8092 20.7068,0 0,0 17.2577,7.4257 18.9891,7.7899 0.438,2.1264 0.5873,4.101 0.5873,6.2348 0,12.9418 -7.0968,24.2029 -17.1248,29.4133 z M 93.3125,16.3645 c 0.0108,0.0511 0.0194,0.1011 0.0299,0.1521 0.1896,0.0399 0.196,-0.0035 -0.0299,-0.1521 z"
             style="opacity:0.3;mix-blend-mode:multiply;fill:url(#r)" /><path
             id="t"
             d="M 34.1161,100.4319 C 24.2184,91.8238 17.9521,79.135 17.9521,64.9351 c 0,-16.5227 8.6409,-31.7744 22.8728,-40.29 -0.2541,1.6523 -0.5083,3.1774 -0.5083,4.8297 0,9.7865 5.7182,18.302 14.1049,22.2421 v 44.6113 l 10.5469,10.5491 10.5469,-10.5491 -0.6354,-9.2781 4.9558,-4.9568 -4.9558,-4.9568 7.4972,-7.4988 -7.4972,-7.4988 0.6354,-10.422 c 8.2596,-3.94 14.1049,-12.4556 14.1049,-22.2421 0,-1.6523 -0.1271,-3.1774 -0.5083,-4.8297 5.1643,3.1178 9.5922,7.1416 13.1419,11.7972 C 93.6697,24.6534 79.7245,16.9836 63.9772,16.9836 c -26.0911,0 -47.2421,21.05 -47.2421,47.0165 0,14.693 6.7736,27.8101 17.3809,36.4318 z m 27.4214,-7.6624 h -3.558 V 57.5634 h 3.558 z M 56.4547,18.7987 c 2.7956,-0.5084 5.7182,-0.7626 8.5138,-0.7626 2.9226,-0.1271 5.7182,0.2542 8.5138,0.7626 0.1271,0.6355 0.2542,1.271 0.2542,1.9064 0,4.8297 -3.9392,8.7698 -8.7679,8.7698 -4.8287,0 -8.7679,-3.94 -8.7679,-8.7698 0,-0.6355 0.1271,-1.2709 0.2542,-1.9064 z"
             style="opacity:0.2;mix-blend-mode:multiply;fill:#0f0f0d" /><path
             id="v"
             d="M 63.9999,8.2241 C 33.2584,8.2241 8.2485,33.245 8.2485,64 c 0,30.755 25.01,55.7759 55.7514,55.7759 30.7414,0 55.7512,-25.0212 55.7512,-55.7759 0,-30.7547 -25.0097,-55.7759 -55.7512,-55.7759 z m -8.5138,9.5882 c 2.7956,-0.5084 5.7182,-0.7626 8.5138,-0.7626 2.9226,-0.1271 5.7182,0.2542 8.5138,0.7626 0.1271,0.6355 0.2542,1.271 0.2542,1.9064 0,4.8297 -3.9392,8.7698 -8.7679,8.7698 -4.8287,0 -8.7679,-3.94 -8.7679,-8.7698 0,-0.6355 0.1271,-1.2709 0.2542,-1.9064 z m 5.0828,38.7648 v 35.2061 h -3.558 V 56.5771 Z m 3.4309,54.3978 c -25.9225,0 -47.0163,-20.9711 -47.0163,-47.0261 0,-16.5227 8.6409,-31.7744 22.8728,-40.29 -0.2541,1.6523 -0.5083,3.1774 -0.5083,4.8297 0,9.7865 5.7182,18.302 14.1049,22.2421 v 44.6113 l 10.5469,10.5491 10.5469,-10.5491 -0.6354,-9.2781 4.9558,-4.9568 -4.9558,-4.9568 7.4972,-7.4988 -7.4972,-7.4988 0.6354,-10.422 c 8.2596,-3.94 14.1049,-12.4556 14.1049,-22.2421 0,-1.6523 -0.1271,-3.1774 -0.5083,-4.8297 14.1049,8.5156 22.7457,23.7673 22.8728,40.29 0,25.9279 -20.9668,47.0261 -47.0163,47.0261 z"
             style="fill:url(#u)" /></g></g></g></g><g
     id="g4"
     transform="matrix(0.92337107,0,0,0.93453038,-94.456654,-27.155563)"
     clip-path="url(#clipPath8)"><path
       d="M 147.87664,81.62797 134.62902,68.514791 154.47684,62.957926 Z"
       id="path3"
       style="fill:#006bff;fill-opacity:1;stroke-width:5.0306"
       inkscape:label="head2" /><path
       d="m 194.70645,47.413501 15.99891,15.107168 -22.79975,3.673805 z"
       id="path3-3"
       style="fill:#006bff;fill-opacity:1;stroke-width:5.52832"
       inkscape:label="head1" /><path
       style="fill:none;fill-opacity:1;fill-rule:nonzero;stroke:#0069ff;stroke-width:9.8323;stroke-dasharray:none;stroke-opacity:1"
       id="path2"
       sodipodi:type="arc"
       sodipodi:cx="186.30576"
       sodipodi:cy="3.6506267"
       sodipodi:rx="26.077686"
       sodipodi:ry="25.752462"
       sodipodi:start="5.756069"
       sodipodi:end="2.1602257"
       sodipodi:open="true"
       sodipodi:arc-type="arc"
       d="m 208.84369,-9.3039737 a 26.077686,25.752462 0 0 1 -4.6816,31.7227637 26.077686,25.752462 0 0 1 -32.35258,2.638778"
       transform="matrix(0.93745702,0.34810105,-0.35844191,0.93355203,0,0)" /><path
       style="fill:none;fill-opacity:1;fill-rule:nonzero;stroke:#0069ff;stroke-width:9.83193;stroke-dasharray:none;stroke-opacity:1"
       id="path2-7"
       sodipodi:type="arc"
       sodipodi:cx="179.62354"
       sodipodi:cy="-2.6596792"
       sodipodi:rx="26.077686"
       sodipodi:ry="25.752462"
       sodipodi:start="2.5170725"
       sodipodi:end="5.2199403"
       sodipodi:open="true"
       sodipodi:arc-type="arc"
       d="m 158.46817,12.397993 a 26.077686,25.752462 0 0 1 1.66936,-32.1719 26.077686,25.752462 0 0 1 32.16077,-5.391809"
       transform="matrix(0.93745702,0.34810105,-0.35844191,0.93355203,0,0)" /></g></svg>
